<?xml version="1.0" encoding="iso-8859-1"?>
<!-- Generator: Adobe Illustrator 16.0.0, SVG Export Plug-In . SVG Version: 6.00 Build 0)  -->
<!DOCTYPE svg PUBLIC "-//W3C//DTD SVG 1.1//EN" "http://www.w3.org/Graphics/SVG/1.1/DTD/svg11.dtd">
<svg version="1.1" id="Capa_1" xmlns="http://www.w3.org/2000/svg" xmlns:xlink="http://www.w3.org/1999/xlink" x="0px" y="0px"
	 width="512px" height="512px" viewBox="0 0 512 512" style="enable-background:new 0 0 512 512;" xml:space="preserve">
<g>
	<g>
		<path d="M256,0C114.609,0,0,114.609,0,256c0,141.391,114.609,256,256,256c141.391,0,256-114.609,256-256
			C512,114.609,397.391,0,256,0z M256,472c-119.297,0-216-96.703-216-216S136.703,40,256,40s216,96.703,216,216S375.297,472,256,472
			z"/>
		<path d="M325.906,306.188c-16-2.733-37.906-18.25-37.906-24.983v-17.017c0-6.344,8.594-18.219,12.25-29.155
			c0.344-1.031,2.547,0.156,4.688-2.438c4.031-4.969,4.625-12.531,5.548-15.969c1.469-5.406-5.095-5.625-5.095-5.625
			s4.892-28.375,0.547-46.281c-5.875-24.406-37.5-36.719-49.875-36.719c-12.375,0-43.969,12.312-49.875,36.719
			C201.86,182.625,206.844,211,206.844,211s-6.312,0.219-4.875,5.625c0.938,3.438,1.984,11,6.031,15.969
			c2.125,2.594,3.422,1.406,3.766,2.438c3.64,10.937,12.234,22.812,12.234,29.155v17.017c0,6.733-21.922,22.25-37.922,24.983
			c-20.547,3.5-30.703,17.703-25.891,53.125c2.406,17.688,49.094,25.297,95.344,24.642c46.25,0.655,93.641-6.953,96.047-24.642
			C356.406,323.891,346.469,309.688,325.906,306.188z"/>
		<rect x="336" y="176" width="48" height="16"/>
		<rect x="352" y="160" width="16" height="48"/>
	</g>
</g>
<g>
</g>
<g>
</g>
<g>
</g>
<g>
</g>
<g>
</g>
<g>
</g>
<g>
</g>
<g>
</g>
<g>
</g>
<g>
</g>
<g>
</g>
<g>
</g>
<g>
</g>
<g>
</g>
<g>
</g>
</svg>
